<svg width="40" height="40" viewBox="0 0 40 40" fill="none" xmlns="http://www.w3.org/2000/svg">
<path d="M20 3.21429C23.6941 3.21429 27.2369 4.68177 29.849 7.29388C32.4611 9.90599 33.9286 13.4488 33.9286 17.1429C33.9286 23.0286 29.7929 29.4429 21.6286 36.4543C21.1746 36.8443 20.5958 37.0585 19.9973 37.0579C19.3989 37.0574 18.8204 36.8422 18.3672 36.4514L17.8272 35.9829C10.0243 29.1543 6.07144 22.8972 6.07144 17.1429C6.07144 13.4488 7.53891 9.90599 10.151 7.29388C12.7631 4.68177 16.3059 3.21429 20 3.21429ZM20 11.7857C18.5792 11.7857 17.2166 12.3501 16.2119 13.3548C15.2073 14.3595 14.6429 15.7221 14.6429 17.1429C14.6429 18.5637 15.2073 19.9263 16.2119 20.9309C17.2166 21.9356 18.5792 22.5 20 22.5C21.4208 22.5 22.7834 21.9356 23.7881 20.9309C24.7927 19.9263 25.3572 18.5637 25.3572 17.1429C25.3572 15.7221 24.7927 14.3595 23.7881 13.3548C22.7834 12.3501 21.4208 11.7857 20 11.7857Z" fill="#FF5A00"/>
</svg>
